<svg xmlns="http://www.w3.org/2000/svg" version="1.1" xmlns:xlink="http://www.w3.org/1999/xlink" xmlns:svgjs="http://svgjs.com/svgjs" width="1440" height="800" preserveAspectRatio="none" viewBox="0 0 1440 800"><g mask="url(&quot;#SvgjsMask1894&quot;)" fill="none"><circle r="72.36081425427642" cx="148.72" cy="478.11" fill="#e73635"></circle><path d="M194.84 82.19a5.6 5.6 0 1 0-10.69-3.35 5.6 5.6 0 1 0 10.69 3.35zM179.57 77.41a5.6 5.6 0 1 0-10.69-3.36 5.6 5.6 0 1 0 10.69 3.36zM164.3 72.62a5.6 5.6 0 1 0-10.69-3.35 5.6 5.6 0 1 0 10.69 3.35zM149.03 67.83a5.6 5.6 0 1 0-10.68-3.35 5.6 5.6 0 1 0 10.68 3.35zM230.16 76.5a5.6 5.6 0 1 0-10.69-3.35 5.6 5.6 0 1 0 10.69 3.35zM214.89 71.71a5.6 5.6 0 1 0-10.69-3.35 5.6 5.6 0 1 0 10.69 3.35zM199.62 66.93a5.6 5.6 0 1 0-10.68-3.35 5.6 5.6 0 1 0 10.68 3.35zM184.36 62.14a5.6 5.6 0 1 0-10.69-3.35 5.6 5.6 0 1 0 10.69 3.35zM265.48 70.81a5.6 5.6 0 1 0-10.69-3.35 5.6 5.6 0 1 0 10.69 3.35zM250.21 66.02a5.6 5.6 0 1 0-10.69-3.35 5.6 5.6 0 1 0 10.69 3.35zM234.94 61.23a5.6 5.6 0 1 0-10.68-3.35 5.6 5.6 0 1 0 10.68 3.35zM219.68 56.45a5.6 5.6 0 1 0-10.69-3.35 5.6 5.6 0 1 0 10.69 3.35z" stroke="#d3b714" stroke-width="1" stroke-dasharray="3, 2"></path><path d="M809.29 348.55L807.12 361.17 794.33 361.83 792.16 374.45 779.37 375.1 777.2 387.72 764.41 388.37M803.98 342.57L801.81 355.19 789.02 355.84 786.85 368.46 774.06 369.12 771.89 381.74 759.1 382.39M798.67 336.58L796.5 349.21 783.71 349.86 781.54 362.48 768.75 363.13 766.58 375.75 753.79 376.4" stroke="#e73635" stroke-width="1" stroke-dasharray="3, 3"></path><rect width="137.2" height="137.2" clip-path="url(&quot;#SvgjsClipPath1895&quot;)" x="78.9" y="257.75" fill="url(#SvgjsPattern1896)" transform="rotate(271.86, 147.5, 326.35)"></rect><path d="M1218.42 348.93a5.6 5.6 0 1 0-9.47 5.98 5.6 5.6 0 1 0 9.47-5.98zM1204.89 357.48a5.6 5.6 0 1 0-9.47 5.98 5.6 5.6 0 1 0 9.47-5.98zM1191.36 366.02a5.6 5.6 0 1 0-9.46 5.98 5.6 5.6 0 1 0 9.46-5.98zM1177.84 374.57a5.6 5.6 0 1 0-9.47 5.98 5.6 5.6 0 1 0 9.47-5.98zM1236.93 318.31a5.6 5.6 0 1 0-9.47 5.99 5.6 5.6 0 1 0 9.47-5.99zM1223.4 326.86a5.6 5.6 0 1 0-9.47 5.98 5.6 5.6 0 1 0 9.47-5.98zM1209.87 335.4a5.6 5.6 0 1 0-9.47 5.99 5.6 5.6 0 1 0 9.47-5.99zM1196.35 343.95a5.6 5.6 0 1 0-9.47 5.98 5.6 5.6 0 1 0 9.47-5.98z" stroke="#e73635" stroke-width="1.04" stroke-dasharray="4, 4"></path><rect width="396" height="396" clip-path="url(&quot;#SvgjsClipPath1897&quot;)" x="234.36" y="252.45" fill="url(#SvgjsPattern1898)" transform="rotate(45.14, 432.36, 450.45)"></rect><rect width="384" height="384" clip-path="url(&quot;#SvgjsClipPath1899&quot;)" x="122.62" y="-80.03" fill="url(#SvgjsPattern1900)" transform="rotate(238.64, 314.62, 111.97)"></rect><path d="M1019.56 82.75999999999999 L1134.36 287.40999999999997L970.6017619752957 291.4432380247042z" stroke="#d3b714" stroke-width="1" stroke-dasharray="4, 4"></path><rect width="296.8" height="296.8" clip-path="url(&quot;#SvgjsClipPath1901&quot;)" x="1101.14" y="401.65" fill="url(#SvgjsPattern1902)" transform="rotate(304.85, 1249.54, 550.05)"></rect></g><defs><mask id="SvgjsMask1894"><rect width="1440" height="800" fill="#ffffff"></rect></mask><pattern x="0" y="0" width="9.8" height="9.8" patternUnits="userSpaceOnUse" id="SvgjsPattern1896"><path d="M4.9 1L4.9 8.8M1 4.9L8.8 4.9" stroke="#e73635" fill="none" stroke-width="2.33"></path></pattern><clipPath id="SvgjsClipPath1895"><circle r="34.3" cx="147.5" cy="326.35"></circle></clipPath><pattern x="0" y="0" width="396" height="6" patternUnits="userSpaceOnUse" id="SvgjsPattern1898"><rect width="396" height="3" x="0" y="0" fill="#e73635"></rect><rect width="396" height="3" x="0" y="3" fill="rgba(0, 0, 0, 0)"></rect></pattern><clipPath id="SvgjsClipPath1897"><circle r="99" cx="432.36" cy="450.45"></circle></clipPath><pattern x="0" y="0" width="6" height="6" patternUnits="userSpaceOnUse" id="SvgjsPattern1900"><path d="M3 1L3 5M1 3L5 3" stroke="#e73635" fill="none" stroke-width="1.26"></path></pattern><clipPath id="SvgjsClipPath1899"><circle r="96" cx="314.62" cy="111.97"></circle></clipPath><pattern x="0" y="0" width="296.8" height="7.42" patternUnits="userSpaceOnUse" id="SvgjsPattern1902"><rect width="296.8" height="3.71" x="0" y="0" fill="#d3b714"></rect><rect width="296.8" height="3.71" x="0" y="3.71" fill="rgba(0, 0, 0, 0)"></rect></pattern><clipPath id="SvgjsClipPath1901"><circle r="74.2" cx="1249.54" cy="550.05"></circle></clipPath></defs></svg>