<svg xmlns="http://www.w3.org/2000/svg" version="1.1" xmlns:xlink="http://www.w3.org/1999/xlink" xmlns:svgjs="http://svgjs.com/svgjs" width="1440" height="560" preserveAspectRatio="none" viewBox="0 0 1440 560"><g mask="url(&quot;#SvgjsMask1045&quot;)" fill="none"><rect width="168" height="168" clip-path="url(&quot;#SvgjsClipPath1046&quot;)" x="528.25" y="270.56" fill="url(#SvgjsPattern1047)" transform="rotate(221.57, 612.25, 354.56)"></rect><circle r="46.666666666666664" cx="1439.5" cy="78.99" fill="#d3b714"></circle><rect width="304.8" height="304.8" clip-path="url(&quot;#SvgjsClipPath1048&quot;)" x="663.09" y="227.59" fill="url(#SvgjsPattern1049)" transform="rotate(189.92, 815.49, 379.99)"></rect><path d="M1354.91 468.92L1354.76 456.11 1367.22 453.15 1367.06 440.34 1379.52 437.38 1379.36 424.58 1391.82 421.61" stroke="#e73635" stroke-width="2.78" stroke-dasharray="3, 3"></path><rect width="276" height="276" clip-path="url(&quot;#SvgjsClipPath1050&quot;)" x="475.61" y="229.53" fill="url(#SvgjsPattern1051)" transform="rotate(173.52, 613.61, 367.53)"></rect><rect width="355.2" height="355.2" clip-path="url(&quot;#SvgjsClipPath1052&quot;)" x="1181.98" y="-43.95" fill="url(#SvgjsPattern1053)" transform="rotate(220.34, 1359.58, 133.65)"></rect><rect width="114.24" height="114.24" clip-path="url(&quot;#SvgjsClipPath1054&quot;)" x="699.94" y="27.35" fill="url(#SvgjsPattern1055)" transform="rotate(236.94, 757.06, 84.47)"></rect><rect width="359.04" height="359.04" clip-path="url(&quot;#SvgjsClipPath1056&quot;)" x="682.88" y="-19.75" fill="url(#SvgjsPattern1057)" transform="rotate(270.68, 862.4, 159.77)"></rect><circle r="68.18848703067603" cx="1309.03" cy="521.57" fill="#d3b714"></circle><circle r="46.666666666666664" cx="464.22" cy="62.61" fill="#e73635"></circle><path d="M1009.11 382.4 L851.02 275.34999999999997L847.6633212183276 411.2766787816725z" fill="#e73635"></path><path d="M116.05 435.16L103.26 434.59 101 421.99 88.2 421.42 85.95 408.82 73.15 408.26 70.89 395.65M121.32 429.14L108.52 428.57 106.27 415.97 93.47 415.4 91.21 402.8 78.42 402.23 76.16 389.63M126.59 423.11L113.79 422.55 111.53 409.95 98.74 409.38 96.48 396.78 83.69 396.21 81.43 383.61" stroke="#d3b714" stroke-width="1.12" stroke-dasharray="3, 3"></path></g><defs><mask id="SvgjsMask1045"><rect width="1440" height="560" fill="#ffffff"></rect></mask><pattern x="0" y="0" width="168" height="6" patternUnits="userSpaceOnUse" id="SvgjsPattern1047"><rect width="168" height="3" x="0" y="0" fill="#e73635"></rect><rect width="168" height="3" x="0" y="3" fill="rgba(0, 0, 0, 0)"></rect></pattern><clipPath id="SvgjsClipPath1046"><circle r="42" cx="612.25" cy="354.56"></circle></clipPath><pattern x="0" y="0" width="7.62" height="7.62" patternUnits="userSpaceOnUse" id="SvgjsPattern1049"><path d="M0 7.62L3.81 0L7.62 7.62" stroke="#d3b714" fill="none"></path></pattern><clipPath id="SvgjsClipPath1048"><circle r="76.2" cx="815.49" cy="379.99"></circle></clipPath><pattern x="0" y="0" width="6" height="6" patternUnits="userSpaceOnUse" id="SvgjsPattern1051"><path d="M3 1L3 5M1 3L5 3" stroke="#d3b714" fill="none" stroke-width="1"></path></pattern><clipPath id="SvgjsClipPath1050"><circle r="69" cx="613.61" cy="367.53"></circle></clipPath><pattern x="0" y="0" width="11.1" height="11.1" patternUnits="userSpaceOnUse" id="SvgjsPattern1053"><path d="M5.55 1L5.55 10.1M1 5.55L10.1 5.55" stroke="#e73635" fill="none" stroke-width="3.89"></path></pattern><clipPath id="SvgjsClipPath1052"><circle r="88.8" cx="1359.58" cy="133.65"></circle></clipPath><pattern x="0" y="0" width="9.52" height="9.52" patternUnits="userSpaceOnUse" id="SvgjsPattern1055"><path d="M0 9.52L4.76 0L9.52 9.52" stroke="#d3b714" fill="none"></path></pattern><clipPath id="SvgjsClipPath1054"><circle r="28.56" cx="757.06" cy="84.47"></circle></clipPath><pattern x="0" y="0" width="359.04" height="8.16" patternUnits="userSpaceOnUse" id="SvgjsPattern1057"><rect width="359.04" height="4.08" x="0" y="0" fill="#e73635"></rect><rect width="359.04" height="4.08" x="0" y="4.08" fill="rgba(0, 0, 0, 0)"></rect></pattern><clipPath id="SvgjsClipPath1056"><circle r="89.76" cx="862.4" cy="159.77"></circle></clipPath></defs></svg>