<svg xmlns="http://www.w3.org/2000/svg" version="1.1" xmlns:xlink="http://www.w3.org/1999/xlink" xmlns:svgjs="http://svgjs.com/svgjs" width="1440" height="600" preserveAspectRatio="none" viewBox="0 0 1440 600"><g mask="url(&quot;#SvgjsMask1028&quot;)" fill="none"><path d="M829.692,439.578C873.293,437.977,903.535,402.543,926.959,365.734C953.019,324.784,983.453,276.825,960.475,234.069C936.836,190.082,879.51,181.295,829.692,184.742C786.252,187.747,748.907,212.656,726.899,250.229C704.621,288.263,698.178,334.626,719.208,373.364C741.163,413.807,783.705,441.267,829.692,439.578" fill="rgba(143, 60, 60, 0.77)" class="triangle-float1"></path><path d="M510.94,445.32C540.365,445.201,572.898,444.661,589.412,420.307C607.568,393.532,607.075,356.789,589.303,329.758C572.916,304.834,540.745,299.791,510.94,300.955C483.575,302.024,457.642,312.667,442.505,335.49C425.487,361.149,415.073,394.817,431.356,420.949C447.082,446.187,481.204,445.441,510.94,445.32" fill="rgba(143, 60, 60, 0.77)" class="triangle-float3"></path><path d="M58.693,565.776C81.766,567.253,106.554,559.051,117.454,538.662C127.941,519.046,118.027,496.126,105.894,477.484C95.087,460.879,78.501,447.98,58.693,448.377C39.471,448.762,24.092,462.56,14.657,479.312C5.424,495.706,3.119,515.125,11.658,531.891C21.057,550.345,38.025,564.453,58.693,565.776" fill="rgba(143, 60, 60, 0.77)" class="triangle-float1"></path><path d="M509.279,649.679C563.978,649.366,614.169,623.935,644.95,578.717C680.706,526.191,706.505,459.844,676.71,403.722C645.583,345.092,575.598,320.322,509.279,323.171C447.839,325.81,394.184,362.959,365.038,417.11C337.39,468.477,340.144,530.713,370.89,580.287C400.042,627.29,453.971,649.996,509.279,649.679" fill="rgba(143, 60, 60, 0.77)" class="triangle-float1"></path><path d="M669.729,820.633C721.69,819.088,767.086,792.029,796.459,749.139C831.148,698.488,863.432,635.017,833.593,581.365C803.285,526.871,731.905,516.559,669.729,521.274C616.219,525.332,571.383,557.232,543.916,603.334C515.673,650.738,501.59,709.331,529.238,757.084C556.841,804.759,614.664,822.27,669.729,820.633" fill="rgba(143, 60, 60, 0.77)" class="triangle-float3"></path><path d="M520.901,683.138C572.51,680.488,607.617,635.694,631.425,589.828C653.018,548.23,657.51,501.095,637.364,458.778C613.68,409.028,575.955,359.925,520.901,357.67C463.04,355.3,414.17,397.554,386.653,448.509C360.545,496.854,361.517,554.595,388.804,602.284C416.283,650.31,465.642,685.975,520.901,683.138" fill="rgba(143, 60, 60, 0.77)" class="triangle-float3"></path><path d="M863.157,347.426C887.407,347.412,905.444,327.389,916.963,306.049C927.812,285.95,930.463,262.471,919.961,242.188C908.543,220.136,887.978,201.351,863.157,202.129C839.248,202.878,823.214,224.329,812.203,245.565C802.235,264.79,799.556,286.742,809.244,306.11C820.101,327.813,838.89,347.44,863.157,347.426" fill="rgba(143, 60, 60, 0.77)" class="triangle-float3"></path><path d="M1217.723,749.538C1268.297,750.054,1312.798,718.02,1337.315,673.783C1361.075,630.913,1361.452,578.328,1335.74,536.599C1311.185,496.748,1264.525,480.525,1217.723,479.693C1169.113,478.829,1117.288,490.62,1092.206,532.269C1066.498,574.958,1077.355,628.237,1102.282,671.386C1127.196,714.512,1167.921,749.03,1217.723,749.538" fill="rgba(143, 60, 60, 0.77)" class="triangle-float3"></path><path d="M814.108,472.232C860.755,469.798,900.524,440.74,922.921,399.75C944.366,360.504,943.65,313.767,922.113,274.571C899.699,233.779,860.652,201.792,814.108,201.716C767.453,201.64,730.068,234.56,705.495,274.219C679.202,316.655,659.663,368.467,683.671,412.236C708.339,457.209,762.884,474.905,814.108,472.232" fill="rgba(143, 60, 60, 0.77)" class="triangle-float2"></path><path d="M1067.875,766.922C1131.258,762.618,1170.015,705.169,1202.192,650.392C1234.983,594.569,1274.029,528.56,1240.384,473.247C1207.345,418.93,1131.451,429.529,1067.875,429.57C1004.411,429.61,932.297,421.584,895.748,473.467C855.09,531.183,862.033,610.17,897.752,671.066C933.048,731.241,998.272,771.648,1067.875,766.922" fill="rgba(143, 60, 60, 0.77)" class="triangle-float1"></path><path d="M585.756,132.869C607.207,134.454,630.863,127.482,640.757,108.383C650.181,90.19,638.489,69.808,627.322,52.63C617.469,37.474,603.806,24.766,585.756,23.777C565.908,22.69,545.046,30.176,535.475,47.598C526.162,64.55,533.413,84.516,543.237,101.177C552.86,117.497,566.862,131.473,585.756,132.869" fill="rgba(143, 60, 60, 0.77)" class="triangle-float2"></path><path d="M1167.632,201.633C1200.473,199.056,1224.256,174.726,1241.792,146.839C1260.986,116.315,1279.921,80.736,1263.996,48.386C1246.703,13.258,1206.783,-3.294,1167.632,-3.809C1127.48,-4.337,1087.279,11.268,1066.771,45.791C1045.866,80.982,1047.898,125.948,1070.138,160.311C1090.693,192.071,1129.917,204.593,1167.632,201.633" fill="rgba(143, 60, 60, 0.77)" class="triangle-float3"></path><path d="M1120.19,311C1168.789,307.533,1200.834,264.83,1223.068,221.477C1242.986,182.64,1247.378,138.881,1228.693,99.436C1206.622,52.842,1171.624,7.843,1120.19,4.29C1063.672,0.386,1010.014,33.056,982.192,82.407C954.832,130.937,959.512,190.531,988.304,238.225C1016.117,284.297,1066.51,314.829,1120.19,311" fill="rgba(143, 60, 60, 0.77)" class="triangle-float1"></path><path d="M302.188,328.972C322.615,330.183,341.884,318.938,352.374,301.368C363.134,283.346,365.013,260.335,353.735,242.633C343.119,225.97,321.939,222.061,302.188,222.598C283.574,223.104,264.331,229.037,255.275,245.308C246.41,261.236,252.436,280.07,261.352,295.97C270.526,312.331,283.463,327.862,302.188,328.972" fill="rgba(143, 60, 60, 0.77)" class="triangle-float1"></path><path d="M124.199,284.429C164.911,286.997,208.04,275.57,229.833,241.086C252.915,204.562,249.569,157.606,228.009,120.163C206.404,82.642,167.452,55.69,124.199,57.631C83.571,59.454,53.398,92.357,35.362,128.808C19.464,160.94,21.599,197.939,39.372,229.073C57.313,260.501,88.083,282.151,124.199,284.429" fill="rgba(143, 60, 60, 0.77)" class="triangle-float2"></path><path d="M1034.292,483.515C1080.445,482.585,1129.76,470.935,1152.155,430.569C1174.084,391.044,1157.443,343.557,1133.054,305.5C1110.893,270.92,1075.311,248.736,1034.292,246.657C988.933,244.358,941.787,256.785,916.525,294.528C888.461,336.458,881.223,392.668,907.907,435.489C933.453,476.484,985.999,484.488,1034.292,483.515" fill="rgba(143, 60, 60, 0.77)" class="triangle-float1"></path></g><defs><mask id="SvgjsMask1028"><rect width="1440" height="600" fill="#ffffff"></rect></mask><style>
            @keyframes float1 {
                0%{transform: translate(0, 0)}
                50%{transform: translate(-10px, 0)}
                100%{transform: translate(0, 0)}
            }

            .triangle-float1 {
                animation: float1 5s infinite;
            }

            @keyframes float2 {
                0%{transform: translate(0, 0)}
                50%{transform: translate(-5px, -5px)}
                100%{transform: translate(0, 0)}
            }

            .triangle-float2 {
                animation: float2 4s infinite;
            }

            @keyframes float3 {
                0%{transform: translate(0, 0)}
                50%{transform: translate(0, -10px)}
                100%{transform: translate(0, 0)}
            }

            .triangle-float3 {
                animation: float3 6s infinite;
            }
        </style></defs></svg>