<svg xmlns="http://www.w3.org/2000/svg" version="1.1" xmlns:xlink="http://www.w3.org/1999/xlink" xmlns:svgjs="http://svgjs.com/svgjs" width="1440" height="560" preserveAspectRatio="none" viewBox="0 0 1440 560"><g mask="url(&quot;#SvgjsMask1126&quot;)" fill="none"><rect width="252.56" height="252.56" clip-path="url(&quot;#SvgjsClipPath1127&quot;)" x="1085.9" y="361.97" fill="url(#SvgjsPattern1128)" transform="rotate(78.97, 1212.18, 488.25)"></rect><rect width="98.2" height="98.2" clip-path="url(&quot;#SvgjsClipPath1129&quot;)" x="344.83" y="485.52" fill="url(#SvgjsPattern1130)" transform="rotate(285.84, 393.93, 534.62)"></rect><rect width="122.4" height="122.4" clip-path="url(&quot;#SvgjsClipPath1131&quot;)" x="779.94" y="-13.12" fill="url(#SvgjsPattern1132)" transform="rotate(268.75, 841.14, 48.08)"></rect><rect width="228" height="228" clip-path="url(&quot;#SvgjsClipPath1133&quot;)" x="1027.01" y="414.39" fill="url(#SvgjsPattern1134)" transform="rotate(94.61, 1141.01, 528.39)"></rect><rect width="117.2" height="117.2" clip-path="url(&quot;#SvgjsClipPath1135&quot;)" x="131" y="214.5" fill="url(#SvgjsPattern1136)" transform="rotate(109.89, 189.6, 273.1)"></rect><path d="M1054.8 227.66a5.6 5.6 0 1 0 11.18 0.68 5.6 5.6 0 1 0-11.18-0.68zM1070.77 228.63a5.6 5.6 0 1 0 11.18 0.68 5.6 5.6 0 1 0-11.18-0.68zM1086.74 229.6a5.6 5.6 0 1 0 11.18 0.69 5.6 5.6 0 1 0-11.18-0.69zM1102.72 230.58a5.6 5.6 0 1 0 11.17 0.68 5.6 5.6 0 1 0-11.17-0.68zM1021.89 241.68a5.6 5.6 0 1 0 11.18 0.68 5.6 5.6 0 1 0-11.18-0.68zM1037.86 242.65a5.6 5.6 0 1 0 11.18 0.68 5.6 5.6 0 1 0-11.18-0.68zM1053.83 243.63a5.6 5.6 0 1 0 11.18 0.68 5.6 5.6 0 1 0-11.18-0.68zM1069.8 244.6a5.6 5.6 0 1 0 11.18 0.68 5.6 5.6 0 1 0-11.18-0.68zM988.97 255.7a5.6 5.6 0 1 0 11.18 0.68 5.6 5.6 0 1 0-11.18-0.68zM1004.95 256.68a5.6 5.6 0 1 0 11.17 0.68 5.6 5.6 0 1 0-11.17-0.68zM1020.92 257.65a5.6 5.6 0 1 0 11.17 0.68 5.6 5.6 0 1 0-11.17-0.68zM1036.89 258.62a5.6 5.6 0 1 0 11.18 0.69 5.6 5.6 0 1 0-11.18-0.69z" stroke="#e73635" stroke-width="2.96"></path><path d="M1084.8400000000001 283.75 L976.8100000000001 260.49L984.8127881369475 318.1322118630526z" stroke="#d3b714" stroke-width="2.57"></path><rect width="77.2" height="77.2" clip-path="url(&quot;#SvgjsClipPath1137&quot;)" x="949.81" y="498.11" fill="url(#SvgjsPattern1138)" transform="rotate(67.41, 988.41, 536.71)"></rect><path d="M883.65 95.61L880.48 108.02 867.68 107.65 864.51 120.06 851.71 119.68 848.54 132.09 835.73 131.72M878.84 89.22L875.67 101.63 862.87 101.26 859.69 113.67 846.89 113.3 843.72 125.7 830.92 125.33" stroke="#d3b714" stroke-width="2.22" stroke-dasharray="3, 2"></path><rect width="82" height="82" clip-path="url(&quot;#SvgjsClipPath1139&quot;)" x="1320.21" y="331.57" fill="url(#SvgjsPattern1140)" transform="rotate(337.44, 1361.21, 372.57)"></rect><rect width="317.67999999999995" height="317.67999999999995" clip-path="url(&quot;#SvgjsClipPath1141&quot;)" x="1199" y="-12.6" fill="url(#SvgjsPattern1142)" transform="rotate(4.97, 1357.84, 146.24)"></rect><path d="M1017.84 46.27a5.6 5.6 0 1 0 2.43-10.93 5.6 5.6 0 1 0-2.43 10.93zM1021.3 30.65a5.6 5.6 0 1 0 2.43-10.93 5.6 5.6 0 1 0-2.43 10.93zM1024.76 15.03a5.6 5.6 0 1 0 2.43-10.93 5.6 5.6 0 1 0-2.43 10.93zM1028.22-0.59a5.6 5.6 0 1 0 2.43-10.93 5.6 5.6 0 1 0-2.43 10.93z" fill="#d3b714"></path></g><defs><mask id="SvgjsMask1126"><rect width="1440" height="560" fill="#ffffff"></rect></mask><pattern x="0" y="0" width="9.02" height="9.02" patternUnits="userSpaceOnUse" id="SvgjsPattern1128"><path d="M0 9.02L4.51 0L9.02 9.02" stroke="#d3b714" fill="none"></path></pattern><clipPath id="SvgjsClipPath1127"><circle r="63.14" cx="1212.18" cy="488.25"></circle></clipPath><pattern x="0" y="0" width="9.82" height="9.82" patternUnits="userSpaceOnUse" id="SvgjsPattern1130"><path d="M0 9.82L4.91 0L9.82 9.82" stroke="#e73635" fill="none"></path></pattern><clipPath id="SvgjsClipPath1129"><circle r="24.55" cx="393.93" cy="534.62"></circle></clipPath><pattern x="0" y="0" width="6.12" height="6.12" patternUnits="userSpaceOnUse" id="SvgjsPattern1132"><path d="M0 6.12L3.06 0L6.12 6.12" stroke="#e73635" fill="none"></path></pattern><clipPath id="SvgjsClipPath1131"><circle r="30.6" cx="841.14" cy="48.08"></circle></clipPath><pattern x="0" y="0" width="228" height="6" patternUnits="userSpaceOnUse" id="SvgjsPattern1134"><rect width="228" height="3" x="0" y="0" fill="#d3b714"></rect><rect width="228" height="3" x="0" y="3" fill="rgba(0, 0, 0, 0)"></rect></pattern><clipPath id="SvgjsClipPath1133"><circle r="57" cx="1141.01" cy="528.39"></circle></clipPath><pattern x="0" y="0" width="11.72" height="11.72" patternUnits="userSpaceOnUse" id="SvgjsPattern1136"><path d="M5.86 1L5.86 10.72M1 5.86L10.72 5.86" stroke="#e73635" fill="none" stroke-width="1"></path></pattern><clipPath id="SvgjsClipPath1135"><circle r="29.3" cx="189.6" cy="273.1"></circle></clipPath><pattern x="0" y="0" width="7.72" height="7.72" patternUnits="userSpaceOnUse" id="SvgjsPattern1138"><path d="M0 7.72L3.86 0L7.72 7.72" stroke="#e73635" fill="none"></path></pattern><clipPath id="SvgjsClipPath1137"><circle r="19.3" cx="988.41" cy="536.71"></circle></clipPath><pattern x="0" y="0" width="8.2" height="8.2" patternUnits="userSpaceOnUse" id="SvgjsPattern1140"><path d="M0 8.2L4.1 0L8.2 8.2" stroke="#e73635" fill="none"></path></pattern><clipPath id="SvgjsClipPath1139"><circle r="20.5" cx="1361.21" cy="372.57"></circle></clipPath><pattern x="0" y="0" width="8.36" height="8.36" patternUnits="userSpaceOnUse" id="SvgjsPattern1142"><path d="M0 8.36L4.18 0L8.36 8.36" stroke="#e73635" fill="none"></path></pattern><clipPath id="SvgjsClipPath1141"><circle r="79.41999999999999" cx="1357.84" cy="146.24"></circle></clipPath></defs></svg>