<svg xmlns="http://www.w3.org/2000/svg" version="1.1" xmlns:xlink="http://www.w3.org/1999/xlink" xmlns:svgjs="http://svgjs.com/svgjs" width="1440" height="560" preserveAspectRatio="none" viewBox="0 0 1440 560"><g mask="url(&quot;#SvgjsMask1022&quot;)" fill="none"><rect width="1440" height="560" x="0" y="0" fill="rgba(143, 60, 60, 1)"></rect><path d="M0,428.642C79.681,420.617,144.343,371.177,217.26,338.064C304.523,298.436,414.028,292.273,470.618,214.924C529.604,134.3,555.14,18.562,519.211,-74.651C483.824,-166.458,364.618,-186.959,290.688,-251.883C229.807,-305.348,193.569,-380.533,123.864,-421.84C39.122,-472.057,-54.07,-532.235,-150.774,-513.489C-248.639,-494.518,-319.419,-407.73,-375.186,-325.101C-426.844,-248.56,-443.427,-156.989,-453.343,-65.181C-462.958,23.841,-468.854,115.683,-431.585,197.098C-394.332,278.478,-326.201,342.546,-247.333,384.858C-172.029,425.258,-85.027,437.206,0,428.642" fill="#642a2a"></path><path d="M1440 997.5160000000001C1525.801 994.95 1608.037 978.4100000000001 1686.448 943.481 1776.059 903.563 1873.6390000000001 865.076 1924.976 781.481 1978.509 694.311 1983.5430000000001 585.198 1968.627 483.995 1953.7440000000001 383.01599999999996 1913.595 284.298 1841.107 212.43900000000002 1771.174 143.113 1673.9279999999999 109.30700000000002 1576.466 95.23899999999998 1487.5529999999999 82.40499999999997 1402.675 114.197 1315.677 136.59500000000003 1225.432 159.829 1113.545 154.14 1057.754 228.78199999999998 1001.852 303.572 1048.8229999999999 409.651 1041.978 502.773 1035.733 587.734 993.9549999999999 670.797 1019.283 752.135 1045.9859999999999 837.887 1106.311 913.261 1183.893 958.51 1260.028 1002.915 1351.901 1000.1510000000001 1440 997.5160000000001" fill="#b65252"></path></g><defs><mask id="SvgjsMask1022"><rect width="1440" height="560" fill="#ffffff"></rect></mask></defs></svg>