<svg xmlns="http://www.w3.org/2000/svg" version="1.1" xmlns:xlink="http://www.w3.org/1999/xlink" xmlns:svgjs="http://svgjs.com/svgjs" width="1440" height="350" preserveAspectRatio="none" viewBox="0 0 1440 350"><g mask="url(&quot;#SvgjsMask1164&quot;)" fill="none"><rect width="1440" height="350" x="0" y="0" fill="rgba(143, 60, 60, 1)"></rect><path d="M0,589.698C110.773,603.152,229.936,560.005,309.83,482.104C385.64,408.186,379.063,288.767,411.876,188.098C440.351,100.739,481.169,21.022,489.932,-70.442C500.849,-184.39,532.011,-310.786,468.82,-406.234C404.719,-503.057,277.499,-533.244,164.859,-561.457C55.67,-588.806,-62.929,-610.546,-165.966,-565.229C-265.154,-521.605,-323.329,-419.952,-374.298,-324.331C-417.291,-243.673,-425.415,-153.396,-433.987,-62.398C-442.15,24.258,-452.245,111.203,-423.048,193.2C-392.215,279.792,-332.029,349.434,-264.963,412.291C-185.807,486.479,-107.697,576.617,0,589.698" fill="#642a2a"></path><path d="M1440 789.742C1522.473 776.164 1596.395 745.6179999999999 1673.473 713.2909999999999 1767.621 673.8050000000001 1879.6480000000001 660.117 1941.936 579.227 2008.5929999999998 492.66200000000003 2045.5410000000002 372.515 2017.1100000000001 267.024 1989.154 163.299 1884.687 102.62 1796.824 40.81 1725.449-9.40100000000001 1643.629-33.98700000000002 1558.992-55.250999999999976 1477.577-75.70499999999998 1393.497-106.24200000000002 1313.564-80.60199999999998 1234.298-55.17599999999999 1188.489 22.062000000000012 1130.821 82.09500000000003 1069.715 145.706 986.79 196.183 965.463 281.772 943.519 369.834 985.119 458.315 1015.789 543.731 1049.0430000000001 636.345 1066.151 749.899 1151.275 799.265 1236.297 848.572 1343.021 805.7090000000001 1440 789.742" fill="#b65252"></path></g><defs><mask id="SvgjsMask1164"><rect width="1440" height="350" fill="#ffffff"></rect></mask></defs></svg>